<svg xmlns="http://www.w3.org/2000/svg" fill="none" viewBox="99.45 31.169 777.075 229.87" style="max-height:500px" width="777.075" height="229.87"><rect fill="none" rx="12" height="300" width="975"/><path fill="#f3e6a4" d="m249.804 51.044 2.075.808c16.144 6.45 29.331 18.916 38.675 33.38l1.785 2.746c9.14 14.804 14.363 31.864 15.215 49.254l.196 3.398c.909 29.879-9.6 57.302-29 79.684-13.445 14.249-33.497 23.318-53.051 24.332-25.027.642-46.709-3.976-66.145-20.414-1.759-1.94-3.367-3.949-5-6l-2.375-2.25c-11.418-11.962-17.013-27.192-21.625-42.75l-1.043-3.492c-7.118-27.873-.173-59.572 14.106-84.008 4.166-6.576 8.271-12.082 14.254-16.953.452-.368.884-.76 1.285-1.182l1.648-1.74c22.675-21.644 60.31-26.19 89-14.813"/><path fill="#271967" d="m249.804 51.044 2.075.808c16.144 6.45 29.331 18.916 38.675 33.38l1.785 2.746c9.14 14.804 14.363 31.864 15.215 49.254l.196 3.398c.909 29.879-9.6 57.302-29 79.684-13.445 14.249-33.497 23.318-53.051 24.332-25.027.642-46.709-3.976-66.145-20.414-1.759-1.94-3.367-3.949-5-6l-2.375-2.25c-11.418-11.962-17.013-27.192-21.625-42.75l-1.043-3.492c-7.118-27.873-.173-59.572 14.106-84.008 4.166-6.576 8.271-12.082 14.254-16.953.452-.368.884-.76 1.285-1.182l1.648-1.74c22.675-21.644 60.31-26.19 89-14.813m-71.676 13.809c-10.971 13.59-15.251 29.537-18.574 46.379l-.571 2.719c-1.666 8.695-1.743 17.281-1.679 26.093l.011 2.328c.139 26.614 1.921 51.293 15.239 74.86l1.274 2.484c5.846 10.698 18.242 17.274 29.547 20.66 4.321 1.008 8.504 1.201 12.929 1.168l2.381-.015c14.253-.284 26.175-4.961 36.549-14.782 22.433-24.321 23.6-62.575 22.509-93.858-.447-8.662-1.56-17.144-3.189-25.657l-.438-2.361c-3.522-18.404-11.124-36.205-26.562-47.64-21.844-13.157-51.692-11.54-69.426 7.622"/><path fill="#f3e6a4" d="M261.332 57.387c-1.435-.934-.56-2.884 1.135-2.642 9.936 1.416 18.503 4.976 27.588 9.923l2.608 1.413c5.5 3.088 10.454 6.123 13.273 11.78.405.813 1.201 1.37 2.109 1.37s1.734.547 2.077 1.386q.687 1.68 1.37 3.364l1.09 2.671c1.782 4.722 2.033 8.6 1.988 13.46a1.1 1.1 0 0 0 1.095 1.118c.515 0 .969.359 1.079.863 3.353 15.431 4.927 30.163 4.686 46.012-.162 11.877 1.152 22.653 4.125 34.125l1.133 4.547c.292 1.164-1.002 2.001-1.824 1.128-2.234-2.374-2.95-4.837-3.622-8.987q-.183-1.386-.352-2.773c-.035-.283-.469-.269-.484.015-.586 10.204-1.478 19.394-5.702 28.742a5 5 0 0 0-.246.675 58 58 0 0 0-.705 2.731 1.17 1.17 0 0 1-1.135.922c-.597 0-1.103.458-1.154 1.053l-.079.924q-.017.212-.078.416c-.964 3.164-2.612 4.718-4.902 6.824a11.7 11.7 0 0 0-1.532 1.717l-1.006 1.379-.909 1.169c-.254.327-.64.518-1.054.518-.742 0-1.349.602-1.349 1.344v.748c0 .58-.244 1.136-.667 1.532-3.801 3.549-4.592 4.22-6.107 4.347-.675.056-1.226.571-1.226 1.248 0 .473-.272.911-.699 1.115l-.84.401c-3.431 1.67-6.562 3.335-9.711 5.515-2.483 1.58-2.724 1.734-5.69 1.749a1.057 1.057 0 0 0-1.06 1.054c0 .536-.401.996-.934 1.059l-2.191.263c-3.724.467-3.724.467-6.489 1.618-4.488 1.335-8.787 1.557-13.449 1.757l-2.805.131c-4.155.148-8.132.035-12.106-.386-3.141-.334-3.561-3.982-.499-4.756 23.429-6.15 41.943-17.463 54.785-38.719 16.101-28.811 19.398-60.4 10.809-92.203-6.459-21.987-20.834-41.524-40.344-53.66m-77.372-8.193c.382.023.835.278 1.106.549.769.77.453 1.978-.532 2.443l-1.163.55c-7.296 3.51-14.043 6.908-20.215 12.246-.953.744-1.339 1.045-1.917 1.167-.997.21-1.928.703-2.301 1.652a2.5 2.5 0 0 1-.168.346c-1.217 2.086-1.271 2.126-3.403 3.71-14.203 11.993-23.415 36.256-25.812 54.375l-.333 2.273c-.344 2.912-.523 5.798-.667 8.727l-.12 2.297c-.848 18.811 2.419 35.508 9.885 52.769 1.209 2.872-1.57 5.108-3.852 2.986a38 38 0 0 1-2.368-2.438 2.14 2.14 0 0 1-.545-1.435v-.854a1.32 1.32 0 0 0-1.319-1.325c-.424 0-.83-.202-1.074-.548-2.107-2.995-3.812-6.263-5.607-9.452l-1.809-3.172c-3.78-6.797-6.75-13.459-9.191-20.828q-.749-2.064-1.504-4.125c-7.474-20.776-10.722-45.325-1.036-65.993a76 76 0 0 1 4.54-6.882l1.952-2.79q.235-.335.52-.63l.728-.753a2.7 2.7 0 0 1 1.95-.827h.16a2.475 2.475 0 0 0 2.306-1.57 2.3 2.3 0 0 1 .169-.345c4.065-6.79 12.329-9.687 19.465-12.148l2.316-.806c4.289-1.468 8.518-2.782 12.976-3.635 3.64-.735 7.231-1.655 10.833-2.559l2.131-.53c10.034-2.513 10.572-2.648 13.899-2.445"/><path fill-opacity=".4" fill="#ebc3a3" d="m419.126 35.005 3.823.023c16.406.287 33.703 3.45 48.181 11.657 1.062.537 1.497.757 2.101.79 1.175.067 2.348-.347 3.315-1.018 1.468-1.018 2.272-2.287 3.455-4.077 1.232-1.859 1.434-2.163 2.324-3.216a2.02 2.02 0 0 1 1.552-.721 2.06 2.06 0 0 1 2.062 2.053v52.987a3.96 3.96 0 0 1-3.96 3.96h-.606a3.17 3.17 0 0 1-3.063-2.352c-3.754-13.162-9.366-24.277-18.371-34.648l-2.375-3.188c-9.197-9.854-22.51-16.528-35.981-17.016-14.101-.23-25.267 1.026-36.644 10.204-8.68 8.817-18.085 22.21-18.188 35.062l.02.312a1.904 1.904 0 0 0 2.609 1.645c4.279-1.225 8.072-1.36 12.496-1.332l2.506.004c7.262.112 14.067 1.251 21.071 2.943a2.74 2.74 0 0 1 1.966 1.806 2.81 2.81 0 0 0 2.122 1.87l.48.092 2.73.535 2.707.528c2.214.477 2.452.528 4.609 1.245.52.172.872.652.872 1.2a1.28 1.28 0 0 0 1.069 1.262l.7.113q.169.027.33.081l.384.128a3.17 3.17 0 0 1 2.017 2.007 3.2 3.2 0 0 0 1.977 2.012q1.69.577 3.389 1.124c.753.243 1.478.565 2.158.969 6.889 4.091 14.075 8.702 19.038 15.019 1.773 2.474 1.773 2.474 4.282 3.668 3.205 2.06 4.875 4.305 7.093 7.394a681 681 0 0 0 3.35 4.592c1.213 1.721 1.213 1.721 2.422 3.758 2.117 3.359 2.562 4.066 4.738 5.421a9.9 9.9 0 0 0 4.683 1.488c1.633.088 3.252.091 4.925.054l2.732.033c2.864.026 5.724-.003 8.588-.033q2.922.012 5.844.035a871 871 0 0 0 12.207-.017 2.057 2.057 0 0 1 2.074 2.056v.164c0 .991-.769 1.811-1.758 1.875-4.9.412-8.439 1.279-12.73 3.604a2.3 2.3 0 0 1-1.091.283c-.864 0-1.666.495-1.992 1.296-1.417 3.486-1.704 6.535-1.748 10.513l-.03 2.013c-.031 2.18-.048 4.36-.065 6.541q-.028 2.276-.059 4.552-.074 5.976-.128 11.95c-.04 4.069-.091 8.138-.141 12.207q-.12 9.968-.219 19.936c-.017 1.701-1.931 2.699-3.253 1.629l-.141-.114a1.73 1.73 0 0 1-.645-1.347c0-.707-.428-1.356-1.091-1.603-6.936-2.585-12.841-2.224-19.8.509a475 475 0 0 0-6.359 2.73c-24.734 10.716-52.663 13.038-78.5 4.438-22.847-9.132-38.34-24.71-48.5-47.063-9.145-22.277-11.635-49.962-4.75-73.187l.602-2.113c7.838-27.113 23.587-49.794 48.624-63.676 12.148-6 24.522-7.763 37.961-7.649"/><path fill="#271967" d="m419.126 35.005 3.823.023c16.406.287 33.703 3.45 48.181 11.657 1.062.537 1.497.757 2.101.79 1.175.067 2.348-.347 3.315-1.018 1.468-1.018 2.272-2.287 3.455-4.077 1.232-1.859 1.434-2.163 2.324-3.216a2.02 2.02 0 0 1 1.552-.721 2.06 2.06 0 0 1 2.062 2.053v52.987a3.96 3.96 0 0 1-3.96 3.96h-.606a3.17 3.17 0 0 1-3.063-2.352c-3.754-13.162-9.366-24.277-18.371-34.648l-2.375-3.188c-9.197-9.854-22.51-16.528-35.981-17.016-14.101-.23-25.267 1.026-36.644 10.204-3.055 3.103-5.56 6.399-8 10l-1.871 2.746c-13.594 21.545-14.318 48.79-14.369 73.487-.01 2.799-.041 5.598-.073 8.398-.116 19.773 1.711 41.307 12.243 58.595 1.1 1.823 1.928 3.698 2.666 5.666a1.69 1.69 0 0 0 1.575 1.108c.518 0 1.014.24 1.33.65l1.811 2.35c7.079 8.512 19.671 15.072 30.69 16.347 3.072.115 6.112.102 9.185.028l3.116-.004c11.968-.138 24.442-3.262 33.255-11.899 10.435-11.475 11.7-25.42 11.817-40.347l.042-3.242c-.043-7.217-.559-13.105-5.114-18.632a8.1 8.1 0 0 0-2.277-1.899c-5.478-3.071-11.349-3.678-17.597-4.227a1.555 1.555 0 0 1-1.429-1.548c0-.865.701-1.577 1.566-1.577h69.885a1.54 1.54 0 0 1 1.549 1.537c0 .816-.634 1.504-1.449 1.556l-.309.02c-4.9.412-8.439 1.279-12.73 3.604a2.3 2.3 0 0 1-1.091.283c-.864 0-1.666.495-1.992 1.296-1.417 3.486-1.704 6.535-1.748 10.513l-.03 2.013c-.031 2.18-.048 4.36-.065 6.541q-.028 2.276-.059 4.552-.074 5.976-.128 11.95c-.04 4.069-.091 8.138-.141 12.207q-.12 9.968-.219 19.936c-.017 1.701-1.931 2.699-3.253 1.629l-.141-.114a1.73 1.73 0 0 1-.645-1.347c0-.707-.428-1.356-1.091-1.603-6.936-2.585-12.841-2.224-19.8.509a475 475 0 0 0-6.359 2.73c-24.734 10.716-52.663 13.038-78.5 4.438-22.847-9.132-38.34-24.71-48.5-47.063-9.145-22.277-11.635-49.962-4.75-73.187l.602-2.113c7.838-27.113 23.587-49.794 48.624-63.676 12.148-6 24.522-7.763 37.961-7.649"/><path fill-opacity=".4" fill="#ebc3a3" d="M494.932 158.936a.5.5 0 0 1 .497-.495c.279 0 .508.228.506.507l-.015 1.842c-.436 19.032-.444 19.416 6.018 36.038.268.689.614 1.357.961 2.011 3.436 6.475 2.789 15.416 2.124 22.686a10 10 0 0 1-.321 1.807c-.844 2.988-2.037 5.433-3.763 8.109l-1.098 1.879c-5.346 8.392-14.188 13.438-23.73 15.59-2.277.557-4.45 1.286-6.672 2.031-16.963 5.064-37.438 5.8-54.465.812a13 13 0 0 0-2.109-.441l-2.551-.308c-4.477-.746-8.468-2.439-12.598-4.226a1.28 1.28 0 0 1-.777-1.176c0-.657-.494-1.215-1.146-1.288l-.924-.103a2 2 0 0 1-.356-.069c-2.417-.688-3.647-1.651-5.102-3.141-.989-1.014-2.129-1.871-3.41-2.478-2.304-1.208-3.398-2.425-5-4.457-2.271-2.78-4.699-4.927-7.465-7.148a1.58 1.58 0 0 1-.597-1.234 1.59 1.59 0 0 0-1.199-1.542l-1.32-.33a1.406 1.406 0 0 1-1.002-1.808 1.422 1.422 0 0 1 1.981-.826l1.802.908c25.077 12.384 53.623 14.219 80.213 5.251a213 213 0 0 0 17.025-6.771c6.3-2.675 11.175-3.283 17.58-.982.195.07.414.187.587.302 2.113 1.412 5.411.295 5.449-2.246z"/><path fill="#271967" d="M548.875 219.75q-6.875 0-12.625-3.625T527 206.5q-3.375-6.125-3.375-13.625 0-7.75 2.75-14.125 2.876-6.5 8.25-10.375 5.5-3.875 13.25-3.875 13.75 0 19 6.375 0 8.375-4.625 8.375-2.125 0-3.25-.875-1.125-1-2.875-3.5-3.875-5.75-9.25-5.75-5.126 0-9.375 4.875-4.125 4.875-4.125 14.5 0 10 4.875 16.625 5 6.625 13.75 6.625 5.25 0 8.75-1.5 3.626-1.625 5.25-2.875l.875-.625q.75 0 .75 1.625 0 .875-.75 2.25-2.5 3.5-7.375 6.375-4.875 2.75-10.625 2.75m54.03.125q-7.5 0-13.75-3.75t-10-10.125q-3.625-6.375-3.625-14 0-7.75 3.5-14 3.625-6.25 9.75-9.875 6.125-3.75 13.875-3.75 7.5 0 13.625 3.75 6.25 3.75 9.875 10 3.75 6.25 3.75 13.875t-3.625 14-9.75 10.125q-6 3.75-13.625 3.75M604.03 215q4.5 0 7.875-2.875t5.25-7.75q2-4.875 2-10.625 0-6.75-2.5-12.25-2.5-5.625-6.625-8.875-4-3.375-8.75-3.375-4.375 0-7.875 2.875-3.375 2.75-5.25 7.5-1.875 4.625-1.875 10.5 0 6.75 2.375 12.5 2.5 5.625 6.5 9Q599.28 215 604.03 215m34.28 4.375q-.5-.5-.5-2.125 0-1.5.5-1.5 1 0 2.75-.375t3.25-1 1.625-1.125q.5-1.75.625-4 .25-2.25.25-4.75v-54.125q0-4.25-.75-8-.5-2-6.375-2h-1.125q-.75 0-.75-1.375 0-2 .75-2 7.5-.875 11.125-2t5-2l1.25-.75h.25q.5 0 1 .75.5.625.625 1.25-1.375 4.125-1.375 10.875v57q0 3.625.25 6.375t.75 4.75q.25.5 1.75 1.125t3.25 1 2.5.375q.375 0 .5 1.5t-.125 2.125l-13.375-.625zm32.655 0q-.5-.5-.5-2.125 0-1.5.5-1.5 1 0 2.75-.375t3.25-1 1.625-1.125q.5-1.75.625-4 .25-2.25.25-4.75v-54.125q0-4.25-.75-8-.5-2-6.375-2h-1.125q-.75 0-.75-1.375 0-2 .75-2 7.5-.875 11.125-2t5-2l1.25-.75h.25q.5 0 1 .75.5.625.625 1.25-1.375 4.125-1.375 10.875v57q0 3.625.25 6.375t.75 4.75q.25.5 1.75 1.125t3.25 1 2.5.375q.375 0 .5 1.5t-.125 2.125l-13.375-.625zm60.155.375q-6.875 0-12.625-3.625t-9.25-9.625q-3.375-6.125-3.375-13.625 0-8.75 3.25-15.125t8.875-9.75q5.625-3.5 12.625-3.5 5.75 0 10.125 2.25 4.375 2.125 6.75 5.5 2.25 3.5 3.25 7.125 1.125 3.5 1.125 7 0 2.5-.75 3.125-.75.5-2.875.5h-31.5q-1 0-1 .625 0 5.25 2.125 10.125 2.125 4.75 6.25 7.875t10.125 3.125q5.25 0 8.75-1.5 3.625-1.625 5.25-2.875l.875-.625q.75 0 .75 1.625 0 .875-.75 2.25-2.5 3.5-7.375 6.375-4.875 2.75-10.625 2.75m-14.375-35h24.375q.625 0 .625-1.25 0-2.75-1.5-6-1.375-3.375-4.25-5.875t-7.25-2.5q-4 0-6.875 2.75-2.875 2.625-4.375 6.125-1.5 3.375-1.5 5.875 0 .875.75.875m66.155 62.625q-5.876 0-11.25-1.5-5.25-1.5-8.5-4.625t-3.25-7.75q0-7.75 12.25-13.25-3.375-.5-6.25-3.125t-2.875-6.375q0-3.25 2.75-6.75 2.875-3.5 6.375-5.75-2.5-1-4.875-3.375-2.25-2.375-3.75-5.625t-1.5-6.75q0-5 2.875-8.875 2.875-4 7.625-6.25Q777.4 165 783.4 165q4.875 0 10.625 1.625t9.875 1.625h7.25q.75.125.75 3.125 0 1.75-.75 1.75h-8.875q-.5 0-.5.375l1.25 3q1.375 3.125 1.375 6 0 4.5-2.75 8.5t-7.5 6.5q-4.625 2.5-10.5 2.5-2 0-3.75-.125a35 35 0 0 1-3.25-.375q-2.375 1.75-3.875 3.625-1.375 1.875-1.375 3.75 0 3.125 3.5 4t9 .875q7.75.125 13.125 1 5.5.75 8.625 2.125 6.25 3 6.25 8.875 0 6.375-3.75 11.75-3.625 5.375-10.25 8.5-6.5 3.25-15 3.375m.625-51.625q4.875 0 8-3.75 3.25-3.75 3.25-9 0-5.75-3.625-9.75-3.5-4-8.25-4-4.875 0-8.125 3.75-3.125 3.75-3.125 9 0 5.75 3.5 9.75 3.625 4 8.375 4m3 47q5 0 8.875-1.875t6-4.875q2.25-3 2.25-6.375 0-5.25-5.125-7-5-1.875-19.875-1.875-1 0-3.5 1.125-2.375 1.125-4.5 3.25-2 2.25-2 5.625 0 3.5 2.625 6.25t6.625 4.25q4.125 1.5 8.625 1.5m60.155-23q-6.875 0-12.625-3.625t-9.25-9.625q-3.375-6.125-3.375-13.625 0-8.75 3.25-15.125t8.875-9.75q5.625-3.5 12.625-3.5 5.75 0 10.125 2.25 4.376 2.125 6.75 5.5 2.25 3.5 3.25 7.125 1.125 3.5 1.125 7 0 2.5-.75 3.125-.75.5-2.875.5h-31.5q-1 0-1 .625 0 5.25 2.125 10.125 2.125 4.75 6.25 7.875t10.125 3.125q5.25 0 8.75-1.5 3.626-1.625 5.25-2.875l.875-.625q.75 0 .75 1.625 0 .875-.75 2.25-2.5 3.5-7.375 6.375-4.875 2.75-10.625 2.75m-14.375-35h24.375q.625 0 .625-1.25 0-2.75-1.5-6-1.375-3.375-4.25-5.875t-7.25-2.5q-4 0-6.875 2.75-2.875 2.625-4.375 6.125-1.5 3.375-1.5 5.875 0 .875.75.875"/></svg>